{"title":"Sherlock S03E02 - The Sign of Three 480p WEB-DL [CLog]","uid":9449734,"size":456639262,"categoryP":"video","categoryS":"tv_shows","magnet":"?xt=urn:btih:b3e61aa0653e0532fe1e09d682e939a1c3f56226&amp;dn=Sherlock+S03E02+-+The+Sign+of+Three+480p+WEB-DL+%5BCLog%5D&amp;tr=udp%3A%2F%2Ftracker.openbittorrent.com%3A80&amp;tr=udp%3A%2F%2Fopen.demonii.com%3A1337&amp;tr=udp%3A%2F%2Ftracker.coppersurfer.tk%3A6969&amp;tr=udp%3A%2F%2Fexodus.desync.com%3A6969","seeders":2,"leechers":0,"uploader":"Cyber-Logic","files":2,"time":1389156491,"description":"Sherlock S03E02 - The Sign of Three | 480p WEB-DL | 430 MB | With Subtitles\n\n\n=== Encoded by Cyber-Logic ===\n\n\n----------------------------------------------------------------------------\n\nScreenshots:\n  &lt;a href=&quot;\nhttp://i.imgur.com/2HzSu0j.png&quot; rel=&quot;nofollow&quot; target=&quot;_NEW&quot;&gt;\nhttp://i.imgur.com/2HzSu0j.png&lt;/a&gt; &lt;a href=&quot;\nhttp://i.imgur.com/SQhKWEu.png&quot; rel=&quot;nofollow&quot; target=&quot;_NEW&quot;&gt;\nhttp://i.imgur.com/SQhKWEu.png&lt;/a&gt; &lt;a href=&quot;\nhttp://i.imgur.com/ZSsxroA.png&quot; rel=&quot;nofollow&quot; target=&quot;_NEW&quot;&gt;\nhttp://i.imgur.com/ZSsxroA.png&lt;/a&gt; &lt;a href=&quot;\nhttp://i.imgur.com/qVLDhpl.png&quot; rel=&quot;nofollow&quot; target=&quot;_NEW&quot;&gt;\nhttp://i.imgur.com/qVLDhpl.png&lt;/a&gt; &lt;a href=&quot;\nhttp://i.imgur.com/NvP34r3.png&quot; rel=&quot;nofollow&quot; target=&quot;_NEW&quot;&gt;\nhttp://i.imgur.com/NvP34r3.png&lt;/a&gt;\n\n----------------------------------------------------------------------------\n\n\nEncoding details:\n\n\nVideo\nID                                       : 1\nFormat                                   : AVC\nFormat/Info                              : Advanced Video Codec\nFormat profile                           : &lt;a class=&quot;__cf_email__&quot; href=&quot;/cdn-cgi/l/email-protection&quot; data-cfemail=&quot;a1e9c8c6c9e1ed958f90&quot;&gt;[email&amp;#160;protected]&lt;/a&gt;&lt;script cf-hash='f9e31' type=&quot;text/javascript&quot;&gt;\n/* &lt;![CDATA[ */!function(){try{var t=&quot;currentScript&quot;in document?document.currentScript:function(){for(var t=document.getElementsByTagName(&quot;script&quot;),e=t.length;e--;)if(t[e].getAttribute(&quot;cf-hash&quot;))return t[e]}();if(t&amp;&amp;t.previousSibling){var e,r,n,i,c=t.previousSibling,a=c.getAttribute(&quot;data-cfemail&quot;);if(a){for(e=&quot;&quot;,r=parseInt(a.substr(0,2),16),n=2;a.length-n;n+=2)i=parseInt(a.substr(n,2),16)^r,e+=String.fromCharCode(i);e=document.createTextNode(e),c.parentNode.replaceChild(e,c)}}}catch(u){}}();/* ]]&gt; */&lt;/script&gt;\nFormat settings, CABAC                   : Yes\nFormat settings, ReFrames                : 5 frames\nCodec ID                                 : avc1\nCodec ID/Info                            : Advanced Video Coding\nDuration                                 : 1h 26mn\nBit rate                                 : 640 Kbps\nMaximum bit rate                         : 8 571 Kbps\nWidth                                    : 856 pixels\nHeight                                   : 480 pixels\nDisplay aspect ratio                     : 16:9\nOriginal display aspect ratio            : 16:9\nFrame rate mode                          : Constant\nFrame rate                               : 25.000 fps\nColor space                              : YUV\nChroma subsampling                       : 4:2:0\nBit depth                                : 8 bits\nScan type                                : Progressive\nBits/(Pixel*Frame)                       : 0.062\nStream size                              : 394 MiB (90%)\nWriting library                          : x264 core 140 r2345\nLanguage                                 : English\n\n\nAudio\nID                                       : 2\nFormat                                   : AAC\nFormat/Info                              : Advanced Audio Codec\nFormat profile                           : HE-AACv2 / HE-AAC / LC\nCodec ID                                 : 40\nDuration                                 : 1h 26mn\nBit rate mode                            : Variable\nChannel(s)                               : 2 channels\nChannel positions                        : Front: L R / Front: C / Front: C\nSampling rate                            : 48.0 KHz / 48.0 KHz / 24.0 KHz\nCompression mode                         : Lossy\nStream size                              : 39.4 MiB (9%)\n\n----------------------------------------------------------------------------\n\nSource: 1080p WEB-DL | Sherlock.S03E02.The.Sign.of.Three.1080p.WEB-DL.DD5.1\n\n----------------------------------------------------------------------------\n\t\t","torrent":{"xt":"urn:btih:b3e61aa0653e0532fe1e09d682e939a1c3f56226","amp;dn":"Sherlock+S03E02+-+The+Sign+of+Three+480p+WEB-DL+%5BCLog%5D","amp;tr":["udp%3A%2F%2Ftracker.openbittorrent.com%3A80","udp%3A%2F%2Fopen.demonii.com%3A1337","udp%3A%2F%2Ftracker.coppersurfer.tk%3A6969","udp%3A%2F%2Fexodus.desync.com%3A6969"],"infoHash":"b3e61aa0653e0532fe1e09d682e939a1c3f56226","infoHashBuffer":{"type":"Buffer","data":[179,230,26,160,101,62,5,50,254,30,9,214,130,233,57,161,195,245,98,38]},"announce":[],"urlList":[]}}